<svg width="40" height="40" viewBox="0 0 40 40" fill="none" xmlns="http://www.w3.org/2000/svg">
<g clip-path="url(#clip0_253_3)">
<path fill-rule="evenodd" clip-rule="evenodd" d="M33.3333 5H6.66659C4.83325 5 3.33325 6.5 3.33325 8.33333V31.6667C3.33325 33.5 4.83325 35 6.66659 35H33.3333C35.1666 35 36.6666 33.5 36.6666 31.6667V8.33333C36.6666 6.5 35.1666 5 33.3333 5ZM16.6666 28.3333H8.33325V25H16.6666V28.3333ZM16.6666 21.6667H8.33325V18.3333H16.6666V21.6667ZM16.6666 15H8.33325V11.6667H16.6666V15ZM24.6999 25L19.9999 20.2667L22.3499 17.9167L24.6999 20.2833L29.9833 15L32.3499 17.3667L24.6999 25Z" fill="#E9E9E9"/>
</g>
<defs>
<clipPath id="clip0_253_3">
<rect width="40" height="40" fill="white"/>
</clipPath>
</defs>
</svg>
