<svg width="38" height="38" viewBox="0 0 38 38" fill="none" xmlns="http://www.w3.org/2000/svg">
<g clip-path="url(#clip0_109_5)">
<path d="M26.1251 4.75C23.3701 4.75 20.7259 6.0325 19.0001 8.05917C17.2742 6.0325 14.6301 4.75 11.8751 4.75C6.99841 4.75 3.16675 8.58167 3.16675 13.4583C3.16675 19.4433 8.55008 24.32 16.7042 31.73L19.0001 33.8042L21.2959 31.7142C29.4501 24.32 34.8334 19.4433 34.8334 13.4583C34.8334 8.58167 31.0017 4.75 26.1251 4.75ZM19.1584 29.3708L19.0001 29.5292L18.8417 29.3708C11.3051 22.5467 6.33341 18.0342 6.33341 13.4583C6.33341 10.2917 8.70841 7.91667 11.8751 7.91667C14.3134 7.91667 16.6884 9.48417 17.5276 11.6533H20.4884C21.3117 9.48417 23.6867 7.91667 26.1251 7.91667C29.2917 7.91667 31.6667 10.2917 31.6667 13.4583C31.6667 18.0342 26.6951 22.5467 19.1584 29.3708Z" fill="#B7B7B7"/>
</g>
<defs>
<clipPath id="clip0_109_5">
<rect width="38" height="38" fill="white"/>
</clipPath>
</defs>
</svg>
