<svg width="34" height="34" viewBox="0 0 34 34" fill="none" xmlns="http://www.w3.org/2000/svg">
<g clip-path="url(#clip0_200_29)">
<path d="M24.0833 9.91663H18.4166V12.75H24.0833C26.4208 12.75 28.3333 14.6625 28.3333 17C28.3333 19.3375 26.4208 21.25 24.0833 21.25H18.4166V24.0833H24.0833C27.9933 24.0833 31.1666 20.91 31.1666 17C31.1666 13.09 27.9933 9.91663 24.0833 9.91663ZM15.5833 21.25H9.91658C7.57909 21.25 5.66659 19.3375 5.66659 17C5.66659 14.6625 7.57909 12.75 9.91658 12.75H15.5833V9.91663H9.91658C6.00659 9.91663 2.83325 13.09 2.83325 17C2.83325 20.91 6.00659 24.0833 9.91658 24.0833H15.5833V21.25ZM11.3333 15.5833H22.6666V18.4166H11.3333V15.5833ZM24.0833 9.91663H18.4166V12.75H24.0833C26.4208 12.75 28.3333 14.6625 28.3333 17C28.3333 19.3375 26.4208 21.25 24.0833 21.25H18.4166V24.0833H24.0833C27.9933 24.0833 31.1666 20.91 31.1666 17C31.1666 13.09 27.9933 9.91663 24.0833 9.91663ZM15.5833 21.25H9.91658C7.57909 21.25 5.66659 19.3375 5.66659 17C5.66659 14.6625 7.57909 12.75 9.91658 12.75H15.5833V9.91663H9.91658C6.00659 9.91663 2.83325 13.09 2.83325 17C2.83325 20.91 6.00659 24.0833 9.91658 24.0833H15.5833V21.25ZM11.3333 15.5833H22.6666V18.4166H11.3333V15.5833Z" fill="#E9E9E9"/>
</g>
<defs>
<clipPath id="clip0_200_29">
<rect width="34" height="34" fill="white"/>
</clipPath>
</defs>
</svg>
