<svg width="265" height="105" viewBox="0 0 265 105" fill="none" xmlns="http://www.w3.org/2000/svg">
<path d="M64.24 85.1C65.1067 85.1 65.8933 85.2933 66.6 85.68C67.3067 86.0533 67.8667 86.62 68.28 87.38C68.6933 88.1267 68.9 89.0533 68.9 90.16C68.9 91.28 68.68 92.22 68.24 92.98C67.8133 93.74 67.2067 94.32 66.42 94.72C65.6333 95.1067 64.7133 95.3 63.66 95.3C62.8333 95.3 62.12 95.2 61.52 95C60.9333 94.8 60.44 94.5667 60.04 94.3C59.76 94.1 59.5467 93.88 59.4 93.64C59.2667 93.4 59.2 93.12 59.2 92.8V86.46H62.14V92.58C62.3 92.6733 62.5067 92.76 62.76 92.84C63.0133 92.92 63.3 92.96 63.62 92.96C64.3 92.96 64.84 92.7267 65.24 92.26C65.6533 91.7933 65.86 91.0933 65.86 90.16C65.86 89.2133 65.66 88.5267 65.26 88.1C64.8733 87.66 64.3533 87.44 63.7 87.44C63.2733 87.44 62.8933 87.52 62.56 87.68C62.2267 87.84 61.94 88.02 61.7 88.22L61.62 85.82C61.9267 85.6467 62.3 85.4867 62.74 85.34C63.1933 85.18 63.6933 85.1 64.24 85.1ZM62.16 87.16H59.2V81.98C59.32 81.94 59.5 81.9 59.74 81.86C59.98 81.82 60.24 81.8 60.52 81.8C61.0933 81.8 61.5067 81.9 61.76 82.1C62.0267 82.3 62.16 82.6667 62.16 83.2V87.16ZM72.1077 92.62C71.8943 92.18 71.661 91.6467 71.4077 91.02C71.1677 90.3933 70.9143 89.6533 70.6477 88.8C70.381 87.9467 70.0943 86.96 69.7877 85.84C69.961 85.6667 70.181 85.52 70.4477 85.4C70.7277 85.2667 71.0277 85.2 71.3477 85.2C71.761 85.2 72.101 85.2867 72.3677 85.46C72.6343 85.6333 72.8343 85.96 72.9677 86.44C73.2743 87.4133 73.581 88.38 73.8877 89.34C74.1943 90.3 74.5077 91.2667 74.8277 92.24H74.9077C75.1343 91.64 75.361 90.96 75.5877 90.2C75.8277 89.44 76.0477 88.66 76.2477 87.86C76.4477 87.0467 76.621 86.2667 76.7677 85.52C76.9543 85.4267 77.1543 85.3533 77.3677 85.3C77.581 85.2333 77.801 85.2 78.0277 85.2C78.441 85.2 78.7943 85.2933 79.0877 85.48C79.3943 85.6533 79.5477 85.9533 79.5477 86.38C79.5477 86.7533 79.4877 87.2133 79.3677 87.76C79.261 88.3067 79.1143 88.9 78.9277 89.54C78.741 90.1667 78.521 90.8133 78.2677 91.48C78.0143 92.1333 77.7477 92.7667 77.4677 93.38C77.201 93.9933 76.9277 94.5467 76.6477 95.04C75.9277 96.2933 75.261 97.2267 74.6477 97.84C74.0477 98.4667 73.4477 98.78 72.8477 98.78C72.3677 98.78 71.9677 98.6333 71.6477 98.34C71.341 98.0467 71.1543 97.6733 71.0877 97.22C71.381 96.98 71.681 96.7 71.9877 96.38C72.2943 96.0733 72.5877 95.74 72.8677 95.38C73.1477 95.0333 73.3943 94.6867 73.6077 94.34C73.381 94.2733 73.1477 94.1267 72.9077 93.9C72.6677 93.6733 72.401 93.2467 72.1077 92.62ZM97.2742 88.92C97.2742 90.3067 97.0009 91.48 96.4542 92.44C95.9209 93.3867 95.1809 94.1067 94.2342 94.6C93.3009 95.0933 92.2409 95.34 91.0542 95.34C89.8676 95.34 88.8076 95.0933 87.8742 94.6C86.9409 94.1067 86.2076 93.3867 85.6742 92.44C85.1409 91.48 84.8742 90.3067 84.8742 88.92C84.8742 87.5333 85.1476 86.3667 85.6942 85.42C86.2409 84.46 86.9809 83.74 87.9142 83.26C88.8476 82.7667 89.8942 82.52 91.0542 82.52C92.2276 82.52 93.2809 82.7667 94.2142 83.26C95.1609 83.74 95.9076 84.46 96.4542 85.42C97.0009 86.3667 97.2742 87.5333 97.2742 88.92ZM94.1342 88.92C94.1342 87.64 93.8542 86.6667 93.2942 86C92.7476 85.3333 92.0009 85 91.0542 85C90.1476 85 89.4142 85.3333 88.8542 86C88.2942 86.6533 88.0142 87.6267 88.0142 88.92C88.0142 90.2267 88.2876 91.2133 88.8342 91.88C89.3942 92.5333 90.1409 92.86 91.0742 92.86C92.0076 92.86 92.7476 92.5333 93.2942 91.88C93.8542 91.2133 94.1342 90.2267 94.1342 88.92ZM108.418 88.78V90.66H105.438V88.88C105.438 88.3867 105.291 88.0267 104.998 87.8C104.718 87.56 104.345 87.44 103.878 87.44C103.545 87.44 103.238 87.4867 102.958 87.58C102.678 87.66 102.425 87.76 102.198 87.88V90.66H99.2381V87.54C99.2381 87.2067 99.3048 86.9333 99.4381 86.72C99.5848 86.4933 99.7915 86.2933 100.058 86.12C100.485 85.8267 101.031 85.5867 101.698 85.4C102.365 85.2 103.098 85.1 103.898 85.1C105.338 85.1 106.451 85.42 107.238 86.06C108.025 86.6867 108.418 87.5933 108.418 88.78ZM99.2381 89.74H102.198V94.98C102.065 95.02 101.878 95.0533 101.638 95.08C101.398 95.12 101.138 95.14 100.858 95.14C100.298 95.14 99.8848 95.04 99.6181 94.84C99.3648 94.64 99.2381 94.28 99.2381 93.76V89.74ZM105.438 89.74H108.418V94.98C108.285 95.02 108.098 95.0533 107.858 95.08C107.618 95.12 107.358 95.14 107.078 95.14C106.518 95.14 106.105 95.04 105.838 94.84C105.571 94.64 105.438 94.28 105.438 93.76V89.74ZM110.842 89.72L113.822 89.78V94.98C113.689 95.02 113.502 95.0533 113.262 95.08C113.022 95.12 112.762 95.14 112.482 95.14C111.922 95.14 111.509 95.04 111.242 94.84C110.975 94.64 110.842 94.28 110.842 93.76V89.72ZM113.822 91.32L110.842 91.26V81.98C110.975 81.94 111.162 81.9 111.402 81.86C111.642 81.82 111.902 81.8 112.182 81.8C112.755 81.8 113.169 81.9 113.422 82.1C113.689 82.3 113.822 82.6667 113.822 83.2V91.32ZM117.85 92.62C117.637 92.18 117.403 91.6467 117.15 91.02C116.91 90.3933 116.657 89.6533 116.39 88.8C116.123 87.9467 115.837 86.96 115.53 85.84C115.703 85.6667 115.923 85.52 116.19 85.4C116.47 85.2667 116.77 85.2 117.09 85.2C117.503 85.2 117.843 85.2867 118.11 85.46C118.377 85.6333 118.577 85.96 118.71 86.44C119.017 87.4133 119.323 88.38 119.63 89.34C119.937 90.3 120.25 91.2667 120.57 92.24H120.65C120.877 91.64 121.103 90.96 121.33 90.2C121.57 89.44 121.79 88.66 121.99 87.86C122.19 87.0467 122.363 86.2667 122.51 85.52C122.697 85.4267 122.897 85.3533 123.11 85.3C123.323 85.2333 123.543 85.2 123.77 85.2C124.183 85.2 124.537 85.2933 124.83 85.48C125.137 85.6533 125.29 85.9533 125.29 86.38C125.29 86.7533 125.23 87.2133 125.11 87.76C125.003 88.3067 124.857 88.9 124.67 89.54C124.483 90.1667 124.263 90.8133 124.01 91.48C123.757 92.1333 123.49 92.7667 123.21 93.38C122.943 93.9933 122.67 94.5467 122.39 95.04C121.67 96.2933 121.003 97.2267 120.39 97.84C119.79 98.4667 119.19 98.78 118.59 98.78C118.11 98.78 117.71 98.6333 117.39 98.34C117.083 98.0467 116.897 97.6733 116.83 97.22C117.123 96.98 117.423 96.7 117.73 96.38C118.037 96.0733 118.33 95.74 118.61 95.38C118.89 95.0333 119.137 94.6867 119.35 94.34C119.123 94.2733 118.89 94.1267 118.65 93.9C118.41 93.6733 118.143 93.2467 117.85 92.62ZM136.593 84.52C136.593 84.8267 136.513 85.0933 136.353 85.32C136.193 85.5467 136.013 85.7267 135.812 85.86C135.479 85.6333 135.099 85.4333 134.673 85.26C134.259 85.0867 133.766 85 133.193 85C132.486 85 131.873 85.1533 131.353 85.46C130.833 85.7667 130.433 86.2133 130.153 86.8C129.886 87.3867 129.753 88.1 129.753 88.94C129.753 90.22 130.073 91.1933 130.713 91.86C131.353 92.5267 132.233 92.86 133.353 92.86C133.926 92.86 134.419 92.78 134.833 92.62C135.246 92.46 135.626 92.28 135.973 92.08C136.173 92.2267 136.333 92.42 136.453 92.66C136.586 92.8867 136.653 93.1533 136.653 93.46C136.653 93.7267 136.579 93.9733 136.433 94.2C136.299 94.4267 136.066 94.62 135.733 94.78C135.479 94.9133 135.119 95.04 134.653 95.16C134.186 95.28 133.619 95.34 132.953 95.34C131.779 95.34 130.706 95.1133 129.733 94.66C128.773 94.1933 128.013 93.4933 127.453 92.56C126.893 91.6133 126.613 90.4067 126.613 88.94C126.613 87.5533 126.886 86.3867 127.433 85.44C127.993 84.48 128.739 83.7533 129.673 83.26C130.606 82.7667 131.639 82.52 132.773 82.52C133.559 82.52 134.239 82.6133 134.813 82.8C135.386 82.9733 135.826 83.2133 136.133 83.52C136.439 83.8133 136.593 84.1467 136.593 84.52ZM147.844 90.2C147.844 91.24 147.631 92.1467 147.204 92.92C146.791 93.68 146.204 94.2667 145.444 94.68C144.684 95.0933 143.791 95.3 142.764 95.3C141.751 95.3 140.858 95.1 140.084 94.7C139.324 94.2867 138.731 93.7 138.304 92.94C137.891 92.1667 137.684 91.2533 137.684 90.2C137.684 89.1467 137.898 88.2467 138.324 87.5C138.751 86.74 139.344 86.1533 140.104 85.74C140.878 85.3133 141.764 85.1 142.764 85.1C143.778 85.1 144.664 85.3133 145.424 85.74C146.184 86.1533 146.778 86.7467 147.204 87.52C147.631 88.28 147.844 89.1733 147.844 90.2ZM142.764 87.44C142.138 87.44 141.638 87.68 141.264 88.16C140.904 88.64 140.724 89.32 140.724 90.2C140.724 91.0933 140.904 91.78 141.264 92.26C141.624 92.7267 142.124 92.96 142.764 92.96C143.404 92.96 143.904 92.72 144.264 92.24C144.624 91.76 144.804 91.08 144.804 90.2C144.804 89.3333 144.624 88.66 144.264 88.18C143.904 87.6867 143.404 87.44 142.764 87.44ZM158.427 88.38V90.66H155.447V88.76C155.447 88.3067 155.314 87.9733 155.047 87.76C154.78 87.5467 154.447 87.44 154.047 87.44C153.754 87.44 153.487 87.4867 153.247 87.58C153.02 87.66 152.827 87.7467 152.667 87.84V90.66H149.707V87.54C149.707 87.2067 149.774 86.9333 149.907 86.72C150.054 86.4933 150.26 86.2933 150.527 86.12C150.967 85.8133 151.507 85.5667 152.147 85.38C152.787 85.1933 153.454 85.1 154.147 85.1C154.787 85.1 155.387 85.2 155.947 85.4C156.507 85.6 156.994 85.9067 157.407 86.32C157.514 86.4 157.614 86.4867 157.707 86.58C157.814 86.66 157.894 86.7533 157.947 86.86C158.08 87.0733 158.194 87.3133 158.287 87.58C158.38 87.8467 158.427 88.1133 158.427 88.38ZM164.167 88.68V90.66H161.207V88.76C161.207 88.3067 161.08 87.9733 160.827 87.76C160.574 87.5467 160.24 87.44 159.827 87.44C159.52 87.44 159.227 87.5067 158.947 87.64C158.68 87.76 158.447 87.9067 158.247 88.08L156.687 86.36C157.127 86.0133 157.627 85.72 158.187 85.48C158.747 85.2267 159.434 85.1 160.247 85.1C160.94 85.1 161.587 85.22 162.187 85.46C162.787 85.7 163.267 86.08 163.627 86.6C163.987 87.12 164.167 87.8133 164.167 88.68ZM149.707 89.74H152.667V94.98C152.534 95.02 152.347 95.0533 152.107 95.08C151.867 95.12 151.607 95.14 151.327 95.14C150.767 95.14 150.354 95.04 150.087 94.84C149.834 94.64 149.707 94.28 149.707 93.76V89.74ZM155.447 89.74H158.427V94.98C158.294 95.02 158.107 95.0533 157.867 95.08C157.627 95.12 157.367 95.14 157.087 95.14C156.514 95.14 156.094 95.04 155.827 94.84C155.574 94.64 155.447 94.28 155.447 93.76V89.74ZM161.207 89.74H164.167V94.98C164.047 95.02 163.867 95.0533 163.627 95.08C163.387 95.12 163.127 95.14 162.847 95.14C162.274 95.14 161.854 95.04 161.587 94.84C161.334 94.64 161.207 94.28 161.207 93.76V89.74ZM171.264 95.3C172.197 95.3 173.03 95.1067 173.764 94.72C174.497 94.32 175.077 93.74 175.504 92.98C175.93 92.22 176.144 91.2733 176.144 90.14C176.144 88.9667 175.924 88.0133 175.484 87.28C175.044 86.5333 174.424 85.9867 173.624 85.64C172.837 85.28 171.93 85.1 170.904 85.1C170.144 85.1 169.457 85.1867 168.844 85.36C168.23 85.52 167.724 85.7267 167.324 85.98C167.044 86.1533 166.837 86.3533 166.704 86.58C166.57 86.7933 166.504 87.0667 166.504 87.4V93.94H169.444V87.82C169.617 87.7133 169.824 87.6267 170.064 87.56C170.317 87.48 170.597 87.44 170.904 87.44C171.357 87.44 171.75 87.5333 172.084 87.72C172.417 87.9067 172.67 88.2 172.844 88.6C173.03 88.9867 173.124 89.5 173.124 90.14C173.124 91.0733 172.917 91.7733 172.504 92.24C172.104 92.7067 171.537 92.94 170.804 92.94C170.39 92.94 170.017 92.86 169.684 92.7C169.364 92.54 169.09 92.3667 168.864 92.18V94.68C169.157 94.84 169.504 94.98 169.904 95.1C170.304 95.2333 170.757 95.3 171.264 95.3ZM169.464 93.18H166.504V97.34C166.504 97.8733 166.63 98.24 166.884 98.44C167.15 98.64 167.564 98.74 168.124 98.74C168.404 98.74 168.664 98.72 168.904 98.68C169.144 98.64 169.33 98.6 169.464 98.56V93.18ZM182.006 93.1C182.313 93.1 182.613 93.0733 182.906 93.02C183.213 92.9533 183.433 92.88 183.566 92.8V90.88L181.886 91.04C181.433 91.0667 181.073 91.16 180.806 91.32C180.54 91.48 180.406 91.72 180.406 92.04C180.406 92.36 180.533 92.62 180.786 92.82C181.04 93.0067 181.446 93.1 182.006 93.1ZM181.886 85.1C183.273 85.1 184.38 85.3933 185.206 85.98C186.033 86.5533 186.446 87.4467 186.446 88.66V93.2C186.446 93.5333 186.36 93.8067 186.186 94.02C186.013 94.22 185.793 94.3933 185.526 94.54C185.126 94.78 184.626 94.9667 184.026 95.1C183.44 95.2467 182.766 95.32 182.006 95.32C180.646 95.32 179.56 95.0533 178.746 94.52C177.946 93.9867 177.546 93.1933 177.546 92.14C177.546 91.2333 177.826 90.54 178.386 90.06C178.946 89.5667 179.78 89.2667 180.886 89.16L183.546 88.88V88.64C183.546 88.1867 183.366 87.86 183.006 87.66C182.66 87.46 182.16 87.36 181.506 87.36C181 87.36 180.5 87.42 180.006 87.54C179.526 87.66 179.093 87.8 178.706 87.96C178.546 87.8533 178.406 87.6933 178.286 87.48C178.18 87.2533 178.126 87.02 178.126 86.78C178.126 86.22 178.433 85.8133 179.046 85.56C179.433 85.4 179.88 85.2867 180.386 85.22C180.906 85.14 181.406 85.1 181.886 85.1ZM197.91 88.78V90.66H194.93V88.88C194.93 88.3867 194.784 88.0267 194.49 87.8C194.21 87.56 193.837 87.44 193.37 87.44C193.037 87.44 192.73 87.4867 192.45 87.58C192.17 87.66 191.917 87.76 191.69 87.88V90.66H188.73V87.54C188.73 87.2067 188.797 86.9333 188.93 86.72C189.077 86.4933 189.284 86.2933 189.55 86.12C189.977 85.8267 190.524 85.5867 191.19 85.4C191.857 85.2 192.59 85.1 193.39 85.1C194.83 85.1 195.944 85.42 196.73 86.06C197.517 86.6867 197.91 87.5933 197.91 88.78ZM188.73 89.74H191.69V94.98C191.557 95.02 191.37 95.0533 191.13 95.08C190.89 95.12 190.63 95.14 190.35 95.14C189.79 95.14 189.377 95.04 189.11 94.84C188.857 94.64 188.73 94.28 188.73 93.76V89.74ZM194.93 89.74H197.91V94.98C197.777 95.02 197.59 95.0533 197.35 95.08C197.11 95.12 196.85 95.14 196.57 95.14C196.01 95.14 195.597 95.04 195.33 94.84C195.064 94.64 194.93 94.28 194.93 93.76V89.74ZM201.58 92.62C201.367 92.18 201.134 91.6467 200.88 91.02C200.64 90.3933 200.387 89.6533 200.12 88.8C199.854 87.9467 199.567 86.96 199.26 85.84C199.434 85.6667 199.654 85.52 199.92 85.4C200.2 85.2667 200.5 85.2 200.82 85.2C201.234 85.2 201.574 85.2867 201.84 85.46C202.107 85.6333 202.307 85.96 202.44 86.44C202.747 87.4133 203.054 88.38 203.36 89.34C203.667 90.3 203.98 91.2667 204.3 92.24H204.38C204.607 91.64 204.834 90.96 205.06 90.2C205.3 89.44 205.52 88.66 205.72 87.86C205.92 87.0467 206.094 86.2667 206.24 85.52C206.427 85.4267 206.627 85.3533 206.84 85.3C207.054 85.2333 207.274 85.2 207.5 85.2C207.914 85.2 208.267 85.2933 208.56 85.48C208.867 85.6533 209.02 85.9533 209.02 86.38C209.02 86.7533 208.96 87.2133 208.84 87.76C208.734 88.3067 208.587 88.9 208.4 89.54C208.214 90.1667 207.994 90.8133 207.74 91.48C207.487 92.1333 207.22 92.7667 206.94 93.38C206.674 93.9933 206.4 94.5467 206.12 95.04C205.4 96.2933 204.734 97.2267 204.12 97.84C203.52 98.4667 202.92 98.78 202.32 98.78C201.84 98.78 201.44 98.6333 201.12 98.34C200.814 98.0467 200.627 97.6733 200.56 97.22C200.854 96.98 201.154 96.7 201.46 96.38C201.767 96.0733 202.06 95.74 202.34 95.38C202.62 95.0333 202.867 94.6867 203.08 94.34C202.854 94.2733 202.62 94.1267 202.38 93.9C202.14 93.6733 201.874 93.2467 201.58 92.62Z" fill="#B4AFAF"/>
<path d="M8.932 44.324L18.792 43.164C22.04 46.6053 24.94 49.6793 27.492 52.386C30.044 55.0927 32.1127 57.258 33.698 58.882C33.698 60.3513 33.2147 61.5113 32.248 62.362C31.2813 63.174 30.16 63.58 28.884 63.58C27.492 63.58 26.3513 63.232 25.462 62.536C24.5727 61.84 23.722 61.028 22.91 60.1L8.932 44.324ZM19.024 47.398L7.772 47.92L25.984 27.504C28.188 27.504 29.7927 27.9487 30.798 28.838C31.8033 29.6887 32.306 30.694 32.306 31.854C32.306 32.7433 32.074 33.594 31.61 34.406C31.1847 35.1793 30.4693 36.03 29.464 36.958L19.024 47.398ZM4.118 38.408H12.934V62.942C12.586 63.058 12.0253 63.174 11.252 63.29C10.4787 63.406 9.686 63.464 8.874 63.464C7.134 63.464 5.89667 63.1547 5.162 62.536C4.466 61.8787 4.118 60.796 4.118 59.288V38.408ZM12.934 49.544H4.118V27.736C4.50467 27.6587 5.08467 27.562 5.858 27.446C6.67 27.33 7.44333 27.272 8.178 27.272C9.87933 27.272 11.0973 27.562 11.832 28.142C12.5667 28.722 12.934 29.824 12.934 31.448V49.544ZM39.0653 37.886L47.0693 37.77C47.2239 39.4327 47.3399 41.076 47.4173 42.7C47.4946 44.324 47.5333 45.89 47.5333 47.398C47.5719 48.906 47.5913 50.3753 47.5913 51.806V63C47.2433 63.0773 46.6826 63.1547 45.9093 63.232C45.1746 63.348 44.4206 63.406 43.6473 63.406C41.9459 63.406 40.7473 63.116 40.0513 62.536C39.3939 61.956 39.0653 60.912 39.0653 59.404V37.886ZM69.9793 52.792L61.9173 52.85C61.6466 50.0273 61.4919 47.34 61.4533 44.788C61.4146 42.236 61.3953 39.8 61.3953 37.48V27.736C61.7819 27.6587 62.3426 27.562 63.0773 27.446C63.8119 27.33 64.5853 27.272 65.3973 27.272C67.0599 27.272 68.2393 27.5813 68.9353 28.2C69.6313 28.78 69.9793 29.8047 69.9793 31.274V52.792ZM69.9793 50.008V61.898C69.4766 62.362 68.7613 62.7293 67.8333 63C66.9439 63.3093 65.8806 63.464 64.6433 63.464C63.3286 63.464 62.0913 63.2513 60.9313 62.826C59.8099 62.4007 58.8819 61.4533 58.1473 59.984L51.1293 46.644C50.7039 45.7933 50.2786 44.9427 49.8533 44.092C49.4666 43.2413 49.0799 42.3907 48.6933 41.54C48.3066 40.6507 47.9199 39.7613 47.5333 38.872L39.0653 40.786V29.36C39.5293 28.7027 40.2446 28.2 41.2113 27.852C42.2166 27.504 43.2993 27.33 44.4593 27.33C45.7353 27.33 46.9339 27.5427 48.0553 27.968C49.2153 28.3933 50.1626 29.3213 50.8973 30.752L57.9733 44.15C58.3986 44.962 58.8239 45.8127 59.2493 46.702C59.6746 47.5527 60.0806 48.4033 60.4673 49.254C60.8539 50.1047 61.2213 50.9747 61.5693 51.864L69.9793 50.008ZM112.309 45.368C112.309 49.3893 111.517 52.792 109.931 55.576C108.385 58.3213 106.239 60.4093 103.493 61.84C100.787 63.2707 97.7126 63.986 94.2713 63.986C90.83 63.986 87.756 63.2707 85.0493 61.84C82.3426 60.4093 80.216 58.3213 78.6693 55.576C77.1226 52.792 76.3493 49.3893 76.3493 45.368C76.3493 41.3467 77.142 37.9633 78.7273 35.218C80.3126 32.434 82.4586 30.346 85.1653 28.954C87.872 27.5233 90.9073 26.808 94.2713 26.808C97.674 26.808 100.729 27.5233 103.435 28.954C106.181 30.346 108.346 32.434 109.931 35.218C111.517 37.9633 112.309 41.3467 112.309 45.368ZM103.203 45.368C103.203 41.656 102.391 38.8333 100.767 36.9C99.182 34.9667 97.0166 34 94.2713 34C91.642 34 89.5153 34.9667 87.8913 36.9C86.2673 38.7947 85.4553 41.6173 85.4553 45.368C85.4553 49.1573 86.248 52.0187 87.8333 53.952C89.4573 55.8467 91.6226 56.794 94.3293 56.794C97.036 56.794 99.182 55.8467 100.767 53.952C102.391 52.0187 103.203 49.1573 103.203 45.368ZM134.825 36.436C135.25 36.2427 135.849 36.0493 136.623 35.856C137.435 35.624 138.247 35.508 139.059 35.508C140.489 35.508 141.669 35.7207 142.597 36.146C143.563 36.5713 144.163 37.2093 144.395 38.06C145.052 40.3413 145.651 42.4293 146.193 44.324C146.734 46.2187 147.256 48.0553 147.759 49.834C148.3 51.574 148.822 53.4107 149.325 55.344H149.557C150.098 52.1347 150.581 49.0607 151.007 46.122C151.432 43.1833 151.838 40.2833 152.225 37.422C152.611 34.5607 152.979 31.622 153.327 28.606C154.603 27.91 155.917 27.562 157.271 27.562C158.547 27.562 159.629 27.8327 160.519 28.374C161.408 28.9153 161.853 29.824 161.853 31.1C161.853 31.9507 161.756 33.1493 161.563 34.696C161.408 36.204 161.176 37.944 160.867 39.916C160.557 41.888 160.19 43.9373 159.765 46.064C159.378 48.1907 158.953 50.2787 158.489 52.328C158.025 54.3387 157.561 56.1753 157.097 57.838C156.633 59.462 156.188 60.7767 155.763 61.782C155.26 62.2073 154.448 62.594 153.327 62.942C152.205 63.2513 151.026 63.406 149.789 63.406C148.242 63.406 146.908 63.1933 145.787 62.768C144.665 62.304 143.989 61.6853 143.757 60.912C143.37 59.7907 142.925 58.476 142.423 56.968C141.959 55.46 141.475 53.8167 140.973 52.038C140.47 50.2207 139.967 48.3647 139.465 46.47C139.039 48.326 138.575 50.2207 138.073 52.154C137.57 54.0487 137.087 55.8273 136.623 57.49C136.159 59.1527 135.733 60.5833 135.347 61.782C134.844 62.2073 134.071 62.594 133.027 62.942C132.021 63.2513 130.9 63.406 129.663 63.406C128.193 63.406 126.84 63.174 125.603 62.71C124.365 62.246 123.573 61.6467 123.225 60.912C122.838 60.0227 122.374 58.6887 121.833 56.91C121.33 55.0927 120.789 53.024 120.209 50.704C119.667 48.3453 119.145 45.89 118.643 43.338C118.14 40.786 117.676 38.3113 117.251 35.914C116.825 33.478 116.497 31.2933 116.265 29.36C116.767 28.9347 117.425 28.5287 118.237 28.142C119.087 27.7553 120.015 27.562 121.021 27.562C122.297 27.562 123.341 27.852 124.153 28.432C124.965 28.9733 125.487 29.9207 125.719 31.274C126.337 34.8313 126.84 37.886 127.227 40.438C127.652 42.99 128 45.1747 128.271 46.992C128.58 48.8093 128.851 50.3947 129.083 51.748C129.315 53.0627 129.547 54.2613 129.779 55.344H130.069C130.455 53.7587 130.823 52.2893 131.171 50.936C131.519 49.544 131.886 48.152 132.273 46.76C132.659 45.3293 133.065 43.802 133.491 42.178C133.916 40.5153 134.361 38.6013 134.825 36.436Z" fill="white"/>
<path d="M168.675 33.768L173.953 33.478C174.108 34.8313 174.243 36.32 174.359 37.944C174.475 39.568 174.553 41.2113 174.591 42.874C174.63 44.498 174.649 46.064 174.649 47.572V62.884C174.417 62.9613 174.031 63.058 173.489 63.174C172.987 63.29 172.465 63.348 171.923 63.348C170.802 63.348 169.971 63.1353 169.429 62.71C168.927 62.2847 168.675 61.5887 168.675 60.622V33.768ZM197.617 56.968L192.281 57.2C191.933 54.1067 191.721 51.0133 191.643 47.92C191.605 44.788 191.585 41.772 191.585 38.872V27.794C191.895 27.7167 192.301 27.6393 192.803 27.562C193.306 27.446 193.828 27.388 194.369 27.388C195.491 27.388 196.303 27.6007 196.805 28.026C197.347 28.4127 197.617 29.1087 197.617 30.114V56.968ZM197.617 54.88V62.188C197.231 62.536 196.689 62.8067 195.993 63C195.336 63.232 194.582 63.348 193.731 63.348C192.687 63.348 191.759 63.174 190.947 62.826C190.135 62.4393 189.42 61.666 188.801 60.506L179.115 43.686C178.574 42.6807 177.994 41.6173 177.375 40.496C176.795 39.3747 176.235 38.292 175.693 37.248C175.152 36.204 174.707 35.2953 174.359 34.522L168.675 35.856V28.722C169.062 28.2967 169.603 27.968 170.299 27.736C170.995 27.504 171.749 27.388 172.561 27.388C173.605 27.388 174.533 27.5813 175.345 27.968C176.157 28.3547 176.873 29.1087 177.491 30.23L187.235 47.05C187.815 48.0167 188.395 49.08 188.975 50.24C189.555 51.3613 190.097 52.444 190.599 53.488C191.141 54.532 191.585 55.4407 191.933 56.214L197.617 54.88ZM207.248 40.67H213.222V62.536C213.028 62.6133 212.661 62.7293 212.12 62.884C211.617 63 211.076 63.058 210.496 63.058C209.529 63.058 208.736 62.7487 208.118 62.13C207.538 61.5113 207.248 60.7187 207.248 59.752V40.67ZM213.222 49.892L207.248 49.834V31.042C207.248 30.0367 207.538 29.244 208.118 28.664C208.736 28.0453 209.529 27.736 210.496 27.736C211.076 27.736 211.617 27.794 212.12 27.91C212.661 28.026 213.028 28.142 213.222 28.258V49.892ZM210.496 47.398V42.468H228.012C228.166 42.7 228.302 43.0287 228.418 43.454C228.572 43.8793 228.65 44.3433 228.65 44.846C228.65 45.658 228.456 46.296 228.07 46.76C227.683 47.1853 227.142 47.398 226.446 47.398H210.496ZM210.496 63.058V58.07H230.042C230.196 58.302 230.332 58.6307 230.448 59.056C230.602 59.4813 230.68 59.9453 230.68 60.448C230.68 61.26 230.486 61.898 230.1 62.362C229.713 62.826 229.172 63.058 228.476 63.058H210.496ZM210.496 32.724V27.736H229.752C229.906 27.968 230.042 28.2967 230.158 28.722C230.312 29.1473 230.39 29.6113 230.39 30.114C230.39 30.926 230.196 31.564 229.81 32.028C229.423 32.492 228.882 32.724 228.186 32.724H210.496ZM247.509 32.782L247.277 27.736H262.241C262.395 27.968 262.55 28.316 262.705 28.78C262.859 29.2053 262.937 29.65 262.937 30.114C262.937 30.9647 262.724 31.622 262.299 32.086C261.912 32.55 261.371 32.782 260.675 32.782H247.509ZM250.293 27.736L250.467 32.782H235.503C235.348 32.55 235.193 32.2213 235.039 31.796C234.884 31.332 234.807 30.8487 234.807 30.346C234.807 29.4953 235 28.8573 235.387 28.432C235.812 27.968 236.373 27.736 237.069 27.736H250.293ZM245.827 31.216H251.859V62.884C251.627 62.9613 251.24 63.058 250.699 63.174C250.157 63.29 249.616 63.348 249.075 63.348C247.953 63.348 247.122 63.1353 246.581 62.71C246.078 62.246 245.827 61.5113 245.827 60.506V31.216Z" fill="#3484CF"/>
</svg>
