<svg width="165" height="71" viewBox="0 0 165 71" fill="none" xmlns="http://www.w3.org/2000/svg">
<path d="M26.992 54.08C27.6853 54.08 28.3147 54.2347 28.88 54.544C29.4453 54.8427 29.8933 55.296 30.224 55.904C30.5547 56.5013 30.72 57.2427 30.72 58.128C30.72 59.024 30.544 59.776 30.192 60.384C29.8507 60.992 29.3653 61.456 28.736 61.776C28.1067 62.0853 27.3707 62.24 26.528 62.24C25.8667 62.24 25.296 62.16 24.816 62C24.3467 61.84 23.952 61.6533 23.632 61.44C23.408 61.28 23.2373 61.104 23.12 60.912C23.0133 60.72 22.96 60.496 22.96 60.24V55.168H25.312V60.064C25.44 60.1387 25.6053 60.208 25.808 60.272C26.0107 60.336 26.24 60.368 26.496 60.368C27.04 60.368 27.472 60.1813 27.792 59.808C28.1227 59.4347 28.288 58.8747 28.288 58.128C28.288 57.3707 28.128 56.8213 27.808 56.48C27.4987 56.128 27.0827 55.952 26.56 55.952C26.2187 55.952 25.9147 56.016 25.648 56.144C25.3813 56.272 25.152 56.416 24.96 56.576L24.896 54.656C25.1413 54.5173 25.44 54.3893 25.792 54.272C26.1547 54.144 26.5547 54.08 26.992 54.08ZM25.328 55.728H22.96V51.584C23.056 51.552 23.2 51.52 23.392 51.488C23.584 51.456 23.792 51.44 24.016 51.44C24.4747 51.44 24.8053 51.52 25.008 51.68C25.2213 51.84 25.328 52.1333 25.328 52.56V55.728ZM33.2861 60.096C33.1155 59.744 32.9288 59.3173 32.7261 58.816C32.5341 58.3147 32.3315 57.7227 32.1181 57.04C31.9048 56.3573 31.6755 55.568 31.4301 54.672C31.5688 54.5333 31.7448 54.416 31.9581 54.32C32.1821 54.2133 32.4221 54.16 32.6781 54.16C33.0088 54.16 33.2808 54.2293 33.4941 54.368C33.7075 54.5067 33.8675 54.768 33.9741 55.152C34.2195 55.9307 34.4648 56.704 34.7101 57.472C34.9555 58.24 35.2061 59.0133 35.4621 59.792H35.5261C35.7075 59.312 35.8888 58.768 36.0701 58.16C36.2621 57.552 36.4381 56.928 36.5981 56.288C36.7581 55.6373 36.8968 55.0133 37.0141 54.416C37.1635 54.3413 37.3235 54.2827 37.4941 54.24C37.6648 54.1867 37.8408 54.16 38.0221 54.16C38.3528 54.16 38.6355 54.2347 38.8701 54.384C39.1155 54.5227 39.2381 54.7627 39.2381 55.104C39.2381 55.4027 39.1901 55.7707 39.0941 56.208C39.0088 56.6453 38.8915 57.12 38.7421 57.632C38.5928 58.1333 38.4168 58.6507 38.2141 59.184C38.0115 59.7067 37.7981 60.2133 37.5741 60.704C37.3608 61.1947 37.1421 61.6373 36.9181 62.032C36.3421 63.0347 35.8088 63.7813 35.3181 64.272C34.8381 64.7733 34.3581 65.024 33.8781 65.024C33.4941 65.024 33.1741 64.9067 32.9181 64.672C32.6728 64.4373 32.5235 64.1387 32.4701 63.776C32.7048 63.584 32.9448 63.36 33.1901 63.104C33.4355 62.8587 33.6701 62.592 33.8941 62.304C34.1181 62.0267 34.3155 61.7493 34.4861 61.472C34.3048 61.4187 34.1181 61.3013 33.9261 61.12C33.7341 60.9387 33.5208 60.5973 33.2861 60.096ZM53.4194 57.136C53.4194 58.2453 53.2007 59.184 52.7634 59.952C52.3367 60.7093 51.7447 61.2853 50.9874 61.68C50.2407 62.0747 49.3927 62.272 48.4434 62.272C47.494 62.272 46.646 62.0747 45.8994 61.68C45.1527 61.2853 44.566 60.7093 44.1394 59.952C43.7127 59.184 43.4994 58.2453 43.4994 57.136C43.4994 56.0267 43.718 55.0933 44.1554 54.336C44.5927 53.568 45.1847 52.992 45.9314 52.608C46.678 52.2133 47.5154 52.016 48.4434 52.016C49.382 52.016 50.2247 52.2133 50.9714 52.608C51.7287 52.992 52.326 53.568 52.7634 54.336C53.2007 55.0933 53.4194 56.0267 53.4194 57.136ZM50.9074 57.136C50.9074 56.112 50.6834 55.3333 50.2354 54.8C49.798 54.2667 49.2007 54 48.4434 54C47.718 54 47.1314 54.2667 46.6834 54.8C46.2354 55.3227 46.0114 56.1013 46.0114 57.136C46.0114 58.1813 46.23 58.9707 46.6674 59.504C47.1154 60.0267 47.7127 60.288 48.4594 60.288C49.206 60.288 49.798 60.0267 50.2354 59.504C50.6834 58.9707 50.9074 58.1813 50.9074 57.136ZM62.3345 57.024V58.528H59.9505V57.104C59.9505 56.7093 59.8332 56.4213 59.5985 56.24C59.3745 56.048 59.0758 55.952 58.7025 55.952C58.4358 55.952 58.1905 55.9893 57.9665 56.064C57.7425 56.128 57.5398 56.208 57.3585 56.304V58.528H54.9905V56.032C54.9905 55.7653 55.0438 55.5467 55.1505 55.376C55.2678 55.1947 55.4332 55.0347 55.6465 54.896C55.9878 54.6613 56.4252 54.4693 56.9585 54.32C57.4918 54.16 58.0785 54.08 58.7185 54.08C59.8705 54.08 60.7612 54.336 61.3905 54.848C62.0198 55.3493 62.3345 56.0747 62.3345 57.024ZM54.9905 57.792H57.3585V61.984C57.2518 62.016 57.1025 62.0427 56.9105 62.064C56.7185 62.096 56.5105 62.112 56.2865 62.112C55.8385 62.112 55.5078 62.032 55.2945 61.872C55.0918 61.712 54.9905 61.424 54.9905 61.008V57.792ZM59.9505 57.792H62.3345V61.984C62.2278 62.016 62.0785 62.0427 61.8865 62.064C61.6945 62.096 61.4865 62.112 61.2625 62.112C60.8145 62.112 60.4838 62.032 60.2705 61.872C60.0572 61.712 59.9505 61.424 59.9505 61.008V57.792ZM64.2736 57.776L66.6576 57.824V61.984C66.551 62.016 66.4016 62.0427 66.2096 62.064C66.0176 62.096 65.8096 62.112 65.5856 62.112C65.1376 62.112 64.807 62.032 64.5936 61.872C64.3803 61.712 64.2736 61.424 64.2736 61.008V57.776ZM66.6576 59.056L64.2736 59.008V51.584C64.3803 51.552 64.5296 51.52 64.7216 51.488C64.9136 51.456 65.1216 51.44 65.3456 51.44C65.8043 51.44 66.135 51.52 66.3376 51.68C66.551 51.84 66.6576 52.1333 66.6576 52.56V59.056ZM69.8799 60.096C69.7092 59.744 69.5225 59.3173 69.3199 58.816C69.1279 58.3147 68.9252 57.7227 68.7119 57.04C68.4985 56.3573 68.2692 55.568 68.0239 54.672C68.1625 54.5333 68.3385 54.416 68.5519 54.32C68.7759 54.2133 69.0159 54.16 69.2719 54.16C69.6025 54.16 69.8745 54.2293 70.0879 54.368C70.3012 54.5067 70.4612 54.768 70.5679 55.152C70.8132 55.9307 71.0585 56.704 71.3039 57.472C71.5492 58.24 71.7999 59.0133 72.0559 59.792H72.1199C72.3012 59.312 72.4825 58.768 72.6639 58.16C72.8559 57.552 73.0319 56.928 73.1919 56.288C73.3519 55.6373 73.4905 55.0133 73.6079 54.416C73.7572 54.3413 73.9172 54.2827 74.0879 54.24C74.2585 54.1867 74.4345 54.16 74.6159 54.16C74.9465 54.16 75.2292 54.2347 75.4639 54.384C75.7092 54.5227 75.8319 54.7627 75.8319 55.104C75.8319 55.4027 75.7839 55.7707 75.6879 56.208C75.6025 56.6453 75.4852 57.12 75.3359 57.632C75.1865 58.1333 75.0105 58.6507 74.8079 59.184C74.6052 59.7067 74.3919 60.2133 74.1679 60.704C73.9545 61.1947 73.7359 61.6373 73.5119 62.032C72.9359 63.0347 72.4025 63.7813 71.9119 64.272C71.4319 64.7733 70.9519 65.024 70.4719 65.024C70.0879 65.024 69.7679 64.9067 69.5119 64.672C69.2665 64.4373 69.1172 64.1387 69.0639 63.776C69.2985 63.584 69.5385 63.36 69.7839 63.104C70.0292 62.8587 70.2639 62.592 70.4879 62.304C70.7119 62.0267 70.9092 61.7493 71.0799 61.472C70.8985 61.4187 70.7119 61.3013 70.5199 61.12C70.3279 60.9387 70.1145 60.5973 69.8799 60.096ZM84.874 53.616C84.874 53.8613 84.81 54.0747 84.682 54.256C84.554 54.4373 84.41 54.5813 84.25 54.688C83.9833 54.5067 83.6793 54.3467 83.338 54.208C83.0073 54.0693 82.6127 54 82.154 54C81.5887 54 81.098 54.1227 80.682 54.368C80.266 54.6133 79.946 54.9707 79.722 55.44C79.5087 55.9093 79.402 56.48 79.402 57.152C79.402 58.176 79.658 58.9547 80.17 59.488C80.682 60.0213 81.386 60.288 82.282 60.288C82.7407 60.288 83.1353 60.224 83.466 60.096C83.7967 59.968 84.1007 59.824 84.378 59.664C84.538 59.7813 84.666 59.936 84.762 60.128C84.8687 60.3093 84.922 60.5227 84.922 60.768C84.922 60.9813 84.8633 61.1787 84.746 61.36C84.6393 61.5413 84.4527 61.696 84.186 61.824C83.9833 61.9307 83.6953 62.032 83.322 62.128C82.9487 62.224 82.4953 62.272 81.962 62.272C81.0233 62.272 80.1647 62.0907 79.386 61.728C78.618 61.3547 78.01 60.7947 77.562 60.048C77.114 59.2907 76.89 58.3253 76.89 57.152C76.89 56.0427 77.1087 55.1093 77.546 54.352C77.994 53.584 78.5913 53.0027 79.338 52.608C80.0847 52.2133 80.9113 52.016 81.818 52.016C82.4473 52.016 82.9913 52.0907 83.45 52.24C83.9087 52.3787 84.2607 52.5707 84.506 52.816C84.7513 53.0507 84.874 53.3173 84.874 53.616ZM93.8755 58.16C93.8755 58.992 93.7048 59.7173 93.3635 60.336C93.0328 60.944 92.5635 61.4133 91.9555 61.744C91.3475 62.0747 90.6328 62.24 89.8115 62.24C89.0008 62.24 88.2862 62.08 87.6675 61.76C87.0595 61.4293 86.5848 60.96 86.2435 60.352C85.9128 59.7333 85.7475 59.0027 85.7475 58.16C85.7475 57.3173 85.9182 56.5973 86.2595 56C86.6008 55.392 87.0755 54.9227 87.6835 54.592C88.3022 54.2507 89.0115 54.08 89.8115 54.08C90.6222 54.08 91.3315 54.2507 91.9395 54.592C92.5475 54.9227 93.0222 55.3973 93.3635 56.016C93.7048 56.624 93.8755 57.3387 93.8755 58.16ZM89.8115 55.952C89.3102 55.952 88.9102 56.144 88.6115 56.528C88.3235 56.912 88.1795 57.456 88.1795 58.16C88.1795 58.8747 88.3235 59.424 88.6115 59.808C88.8995 60.1813 89.2995 60.368 89.8115 60.368C90.3235 60.368 90.7235 60.176 91.0115 59.792C91.2995 59.408 91.4435 58.864 91.4435 58.16C91.4435 57.4667 91.2995 56.928 91.0115 56.544C90.7235 56.1493 90.3235 55.952 89.8115 55.952ZM102.342 56.704V58.528H99.9575V57.008C99.9575 56.6453 99.8508 56.3787 99.6375 56.208C99.4242 56.0373 99.1575 55.952 98.8375 55.952C98.6028 55.952 98.3895 55.9893 98.1975 56.064C98.0162 56.128 97.8615 56.1973 97.7335 56.272V58.528H95.3655V56.032C95.3655 55.7653 95.4188 55.5467 95.5255 55.376C95.6428 55.1947 95.8082 55.0347 96.0215 54.896C96.3735 54.6507 96.8055 54.4533 97.3175 54.304C97.8295 54.1547 98.3628 54.08 98.9175 54.08C99.4295 54.08 99.9095 54.16 100.358 54.32C100.806 54.48 101.195 54.7253 101.526 55.056C101.611 55.12 101.691 55.1893 101.766 55.264C101.851 55.328 101.915 55.4027 101.958 55.488C102.064 55.6587 102.155 55.8507 102.23 56.064C102.304 56.2773 102.342 56.4907 102.342 56.704ZM106.934 56.944V58.528H104.566V57.008C104.566 56.6453 104.464 56.3787 104.262 56.208C104.059 56.0373 103.792 55.952 103.462 55.952C103.216 55.952 102.982 56.0053 102.758 56.112C102.544 56.208 102.358 56.3253 102.198 56.464L100.95 55.088C101.302 54.8107 101.702 54.576 102.15 54.384C102.598 54.1813 103.147 54.08 103.798 54.08C104.352 54.08 104.87 54.176 105.35 54.368C105.83 54.56 106.214 54.864 106.502 55.28C106.79 55.696 106.934 56.2507 106.934 56.944ZM95.3655 57.792H97.7335V61.984C97.6268 62.016 97.4775 62.0427 97.2855 62.064C97.0935 62.096 96.8855 62.112 96.6615 62.112C96.2135 62.112 95.8828 62.032 95.6695 61.872C95.4668 61.712 95.3655 61.424 95.3655 61.008V57.792ZM99.9575 57.792H102.342V61.984C102.235 62.016 102.086 62.0427 101.894 62.064C101.702 62.096 101.494 62.112 101.27 62.112C100.811 62.112 100.475 62.032 100.262 61.872C100.059 61.712 99.9575 61.424 99.9575 61.008V57.792ZM104.566 57.792H106.934V61.984C106.838 62.016 106.694 62.0427 106.502 62.064C106.31 62.096 106.102 62.112 105.878 62.112C105.419 62.112 105.083 62.032 104.87 61.872C104.667 61.712 104.566 61.424 104.566 61.008V57.792ZM112.611 62.24C113.358 62.24 114.024 62.0853 114.611 61.776C115.198 61.456 115.662 60.992 116.003 60.384C116.344 59.776 116.515 59.0187 116.515 58.112C116.515 57.1733 116.339 56.4107 115.987 55.824C115.635 55.2267 115.139 54.7893 114.499 54.512C113.87 54.224 113.144 54.08 112.323 54.08C111.715 54.08 111.166 54.1493 110.675 54.288C110.184 54.416 109.779 54.5813 109.459 54.784C109.235 54.9227 109.07 55.0827 108.963 55.264C108.856 55.4347 108.803 55.6533 108.803 55.92V61.152H111.155V56.256C111.294 56.1707 111.459 56.1013 111.651 56.048C111.854 55.984 112.078 55.952 112.323 55.952C112.686 55.952 113 56.0267 113.267 56.176C113.534 56.3253 113.736 56.56 113.875 56.88C114.024 57.1893 114.099 57.6 114.099 58.112C114.099 58.8587 113.934 59.4187 113.603 59.792C113.283 60.1653 112.83 60.352 112.243 60.352C111.912 60.352 111.614 60.288 111.347 60.16C111.091 60.032 110.872 59.8933 110.691 59.744V61.744C110.926 61.872 111.203 61.984 111.523 62.08C111.843 62.1867 112.206 62.24 112.611 62.24ZM111.171 60.544H108.803V63.872C108.803 64.2987 108.904 64.592 109.107 64.752C109.32 64.912 109.651 64.992 110.099 64.992C110.323 64.992 110.531 64.976 110.723 64.944C110.915 64.912 111.064 64.88 111.171 64.848V60.544ZM121.205 60.48C121.45 60.48 121.69 60.4587 121.925 60.416C122.17 60.3627 122.346 60.304 122.453 60.24V58.704L121.109 58.832C120.746 58.8533 120.458 58.928 120.245 59.056C120.032 59.184 119.925 59.376 119.925 59.632C119.925 59.888 120.026 60.096 120.229 60.256C120.432 60.4053 120.757 60.48 121.205 60.48ZM121.109 54.08C122.218 54.08 123.104 54.3147 123.765 54.784C124.426 55.2427 124.757 55.9573 124.757 56.928V60.56C124.757 60.8267 124.688 61.0453 124.549 61.216C124.41 61.376 124.234 61.5147 124.021 61.632C123.701 61.824 123.301 61.9733 122.821 62.08C122.352 62.1973 121.813 62.256 121.205 62.256C120.117 62.256 119.248 62.0427 118.597 61.616C117.957 61.1893 117.637 60.5547 117.637 59.712C117.637 58.9867 117.861 58.432 118.309 58.048C118.757 57.6533 119.424 57.4133 120.309 57.328L122.437 57.104V56.912C122.437 56.5493 122.293 56.288 122.005 56.128C121.728 55.968 121.328 55.888 120.805 55.888C120.4 55.888 120 55.936 119.605 56.032C119.221 56.128 118.874 56.24 118.565 56.368C118.437 56.2827 118.325 56.1547 118.229 55.984C118.144 55.8027 118.101 55.616 118.101 55.424C118.101 54.976 118.346 54.6507 118.837 54.448C119.146 54.32 119.504 54.2293 119.909 54.176C120.325 54.112 120.725 54.08 121.109 54.08ZM133.928 57.024V58.528H131.544V57.104C131.544 56.7093 131.427 56.4213 131.192 56.24C130.968 56.048 130.67 55.952 130.296 55.952C130.03 55.952 129.784 55.9893 129.56 56.064C129.336 56.128 129.134 56.208 128.952 56.304V58.528H126.584V56.032C126.584 55.7653 126.638 55.5467 126.744 55.376C126.862 55.1947 127.027 55.0347 127.24 54.896C127.582 54.6613 128.019 54.4693 128.552 54.32C129.086 54.16 129.672 54.08 130.312 54.08C131.464 54.08 132.355 54.336 132.984 54.848C133.614 55.3493 133.928 56.0747 133.928 57.024ZM126.584 57.792H128.952V61.984C128.846 62.016 128.696 62.0427 128.504 62.064C128.312 62.096 128.104 62.112 127.88 62.112C127.432 62.112 127.102 62.032 126.888 61.872C126.686 61.712 126.584 61.424 126.584 61.008V57.792ZM131.544 57.792H133.928V61.984C133.822 62.016 133.672 62.0427 133.48 62.064C133.288 62.096 133.08 62.112 132.856 62.112C132.408 62.112 132.078 62.032 131.864 61.872C131.651 61.712 131.544 61.424 131.544 61.008V57.792ZM136.864 60.096C136.694 59.744 136.507 59.3173 136.304 58.816C136.112 58.3147 135.91 57.7227 135.696 57.04C135.483 56.3573 135.254 55.568 135.008 54.672C135.147 54.5333 135.323 54.416 135.536 54.32C135.76 54.2133 136 54.16 136.256 54.16C136.587 54.16 136.859 54.2293 137.072 54.368C137.286 54.5067 137.446 54.768 137.552 55.152C137.798 55.9307 138.043 56.704 138.288 57.472C138.534 58.24 138.784 59.0133 139.04 59.792H139.104C139.286 59.312 139.467 58.768 139.648 58.16C139.84 57.552 140.016 56.928 140.176 56.288C140.336 55.6373 140.475 55.0133 140.592 54.416C140.742 54.3413 140.902 54.2827 141.072 54.24C141.243 54.1867 141.419 54.16 141.6 54.16C141.931 54.16 142.214 54.2347 142.448 54.384C142.694 54.5227 142.816 54.7627 142.816 55.104C142.816 55.4027 142.768 55.7707 142.672 56.208C142.587 56.6453 142.47 57.12 142.32 57.632C142.171 58.1333 141.995 58.6507 141.792 59.184C141.59 59.7067 141.376 60.2133 141.152 60.704C140.939 61.1947 140.72 61.6373 140.496 62.032C139.92 63.0347 139.387 63.7813 138.896 64.272C138.416 64.7733 137.936 65.024 137.456 65.024C137.072 65.024 136.752 64.9067 136.496 64.672C136.251 64.4373 136.102 64.1387 136.048 63.776C136.283 63.584 136.523 63.36 136.768 63.104C137.014 62.8587 137.248 62.592 137.472 62.304C137.696 62.0267 137.894 61.7493 138.064 61.472C137.883 61.4187 137.696 61.3013 137.504 61.12C137.312 60.9387 137.099 60.5973 136.864 60.096Z" fill="#9A9A9A"/>
<path d="M5.544 27.408L11.664 26.688C13.68 28.824 15.48 30.732 17.064 32.412C18.648 34.092 19.932 35.436 20.916 36.444C20.916 37.356 20.616 38.076 20.016 38.604C19.416 39.108 18.72 39.36 17.928 39.36C17.064 39.36 16.356 39.144 15.804 38.712C15.252 38.28 14.724 37.776 14.22 37.2L5.544 27.408ZM11.808 29.316L4.824 29.64L16.128 16.968C17.496 16.968 18.492 17.244 19.116 17.796C19.74 18.324 20.052 18.948 20.052 19.668C20.052 20.22 19.908 20.748 19.62 21.252C19.356 21.732 18.912 22.26 18.288 22.836L11.808 29.316ZM2.556 23.736H8.028V38.964C7.812 39.036 7.464 39.108 6.984 39.18C6.504 39.252 6.012 39.288 5.508 39.288C4.428 39.288 3.66 39.096 3.204 38.712C2.772 38.304 2.556 37.632 2.556 36.696V23.736ZM8.028 30.648H2.556V17.112C2.796 17.064 3.156 17.004 3.636 16.932C4.14 16.86 4.62 16.824 5.076 16.824C6.132 16.824 6.888 17.004 7.344 17.364C7.8 17.724 8.028 18.408 8.028 19.416V30.648ZM24.2474 23.412L29.2154 23.34C29.3114 24.372 29.3834 25.392 29.4314 26.4C29.4794 27.408 29.5034 28.38 29.5034 29.316C29.5274 30.252 29.5394 31.164 29.5394 32.052V39C29.3234 39.048 28.9754 39.096 28.4954 39.144C28.0394 39.216 27.5714 39.252 27.0914 39.252C26.0354 39.252 25.2914 39.072 24.8594 38.712C24.4514 38.352 24.2474 37.704 24.2474 36.768V23.412ZM43.4354 32.664L38.4314 32.7C38.2634 30.948 38.1674 29.28 38.1434 27.696C38.1194 26.112 38.1074 24.6 38.1074 23.16V17.112C38.3474 17.064 38.6954 17.004 39.1514 16.932C39.6074 16.86 40.0874 16.824 40.5914 16.824C41.6234 16.824 42.3554 17.016 42.7874 17.4C43.2194 17.76 43.4354 18.396 43.4354 19.308V32.664ZM43.4354 30.936V38.316C43.1234 38.604 42.6794 38.832 42.1034 39C41.5514 39.192 40.8914 39.288 40.1234 39.288C39.3074 39.288 38.5394 39.156 37.8194 38.892C37.1234 38.628 36.5474 38.04 36.0914 37.128L31.7354 28.848C31.4714 28.32 31.2074 27.792 30.9434 27.264C30.7034 26.736 30.4634 26.208 30.2234 25.68C29.9834 25.128 29.7434 24.576 29.5034 24.024L24.2474 25.212V18.12C24.5354 17.712 24.9794 17.4 25.5794 17.184C26.2034 16.968 26.8754 16.86 27.5954 16.86C28.3874 16.86 29.1314 16.992 29.8274 17.256C30.5474 17.52 31.1354 18.096 31.5914 18.984L35.9834 27.3C36.2474 27.804 36.5114 28.332 36.7754 28.884C37.0394 29.412 37.2914 29.94 37.5314 30.468C37.7714 30.996 37.9994 31.536 38.2154 32.088L43.4354 30.936ZM69.7092 28.056C69.7092 30.552 69.2172 32.664 68.2332 34.392C67.2732 36.096 65.9412 37.392 64.2372 38.28C62.5572 39.168 60.6492 39.612 58.5132 39.612C56.3772 39.612 54.4692 39.168 52.7892 38.28C51.1092 37.392 49.7892 36.096 48.8292 34.392C47.8692 32.664 47.3892 30.552 47.3892 28.056C47.3892 25.56 47.8812 23.46 48.8652 21.756C49.8492 20.028 51.1812 18.732 52.8612 17.868C54.5412 16.98 56.4252 16.536 58.5132 16.536C60.6252 16.536 62.5212 16.98 64.2012 17.868C65.9052 18.732 67.2492 20.028 68.2332 21.756C69.2172 23.46 69.7092 25.56 69.7092 28.056ZM64.0572 28.056C64.0572 25.752 63.5532 24 62.5452 22.8C61.5612 21.6 60.2172 21 58.5132 21C56.8812 21 55.5612 21.6 54.5532 22.8C53.5452 23.976 53.0412 25.728 53.0412 28.056C53.0412 30.408 53.5332 32.184 54.5172 33.384C55.5252 34.56 56.8692 35.148 58.5492 35.148C60.2292 35.148 61.5612 34.56 62.5452 33.384C63.5532 32.184 64.0572 30.408 64.0572 28.056ZM83.6843 22.512C83.9483 22.392 84.3203 22.272 84.8003 22.152C85.3043 22.008 85.8083 21.936 86.3123 21.936C87.2003 21.936 87.9323 22.068 88.5083 22.332C89.1083 22.596 89.4803 22.992 89.6243 23.52C90.0323 24.936 90.4043 26.232 90.7403 27.408C91.0763 28.584 91.4003 29.724 91.7123 30.828C92.0483 31.908 92.3723 33.048 92.6843 34.248H92.8283C93.1643 32.256 93.4643 30.348 93.7283 28.524C93.9923 26.7 94.2443 24.9 94.4843 23.124C94.7243 21.348 94.9523 19.524 95.1683 17.652C95.9603 17.22 96.7763 17.004 97.6163 17.004C98.4083 17.004 99.0803 17.172 99.6323 17.508C100.184 17.844 100.46 18.408 100.46 19.2C100.46 19.728 100.4 20.472 100.28 21.432C100.184 22.368 100.04 23.448 99.8483 24.672C99.6563 25.896 99.4283 27.168 99.1643 28.488C98.9243 29.808 98.6603 31.104 98.3723 32.376C98.0843 33.624 97.7963 34.764 97.5083 35.796C97.2203 36.804 96.9443 37.62 96.6803 38.244C96.3683 38.508 95.8643 38.748 95.1683 38.964C94.4723 39.156 93.7403 39.252 92.9723 39.252C92.0123 39.252 91.1843 39.12 90.4883 38.856C89.7923 38.568 89.3723 38.184 89.2283 37.704C88.9883 37.008 88.7123 36.192 88.4003 35.256C88.1123 34.32 87.8123 33.3 87.5003 32.196C87.1883 31.068 86.8763 29.916 86.5643 28.74C86.3003 29.892 86.0123 31.068 85.7003 32.268C85.3883 33.444 85.0883 34.548 84.8003 35.58C84.5123 36.612 84.2483 37.5 84.0083 38.244C83.6963 38.508 83.2163 38.748 82.5683 38.964C81.9443 39.156 81.2483 39.252 80.4803 39.252C79.5683 39.252 78.7283 39.108 77.9603 38.82C77.1923 38.532 76.7003 38.16 76.4843 37.704C76.2443 37.152 75.9563 36.324 75.6203 35.22C75.3083 34.092 74.9723 32.808 74.6123 31.368C74.2763 29.904 73.9523 28.38 73.6403 26.796C73.3283 25.212 73.0403 23.676 72.7763 22.188C72.5123 20.676 72.3083 19.32 72.1643 18.12C72.4763 17.856 72.8843 17.604 73.3883 17.364C73.9163 17.124 74.4923 17.004 75.1163 17.004C75.9083 17.004 76.5563 17.184 77.0603 17.544C77.5643 17.88 77.8883 18.468 78.0323 19.308C78.4163 21.516 78.7283 23.412 78.9683 24.996C79.2323 26.58 79.4483 27.936 79.6163 29.064C79.8083 30.192 79.9763 31.176 80.1203 32.016C80.2643 32.832 80.4083 33.576 80.5523 34.248H80.7323C80.9723 33.264 81.2003 32.352 81.4163 31.512C81.6323 30.648 81.8603 29.784 82.1003 28.92C82.3403 28.032 82.5923 27.084 82.8563 26.076C83.1203 25.044 83.3963 23.856 83.6843 22.512Z" fill="#202020"/>
<path d="M104.695 20.856L107.971 20.676C108.067 21.516 108.151 22.44 108.223 23.448C108.295 24.456 108.343 25.476 108.367 26.508C108.391 27.516 108.403 28.488 108.403 29.424V38.928C108.259 38.976 108.019 39.036 107.683 39.108C107.371 39.18 107.047 39.216 106.711 39.216C106.015 39.216 105.499 39.084 105.163 38.82C104.851 38.556 104.695 38.124 104.695 37.524V20.856ZM122.659 35.256L119.347 35.4C119.131 33.48 118.999 31.56 118.951 29.64C118.927 27.696 118.915 25.824 118.915 24.024V17.148C119.107 17.1 119.359 17.052 119.671 17.004C119.983 16.932 120.307 16.896 120.643 16.896C121.339 16.896 121.843 17.028 122.155 17.292C122.491 17.532 122.659 17.964 122.659 18.588V35.256ZM122.659 33.96V38.496C122.419 38.712 122.083 38.88 121.651 39C121.243 39.144 120.775 39.216 120.247 39.216C119.599 39.216 119.023 39.108 118.519 38.892C118.015 38.652 117.571 38.172 117.187 37.452L111.175 27.012C110.839 26.388 110.479 25.728 110.095 25.032C109.735 24.336 109.387 23.664 109.051 23.016C108.715 22.368 108.439 21.804 108.223 21.324L104.695 22.152V17.724C104.935 17.46 105.271 17.256 105.703 17.112C106.135 16.968 106.603 16.896 107.107 16.896C107.755 16.896 108.331 17.016 108.835 17.256C109.339 17.496 109.783 17.964 110.167 18.66L116.215 29.1C116.575 29.7 116.935 30.36 117.295 31.08C117.655 31.776 117.991 32.448 118.303 33.096C118.639 33.744 118.915 34.308 119.131 34.788L122.659 33.96ZM128.636 25.14H132.344V38.712C132.224 38.76 131.996 38.832 131.66 38.928C131.348 39 131.012 39.036 130.652 39.036C130.052 39.036 129.56 38.844 129.176 38.46C128.816 38.076 128.636 37.584 128.636 36.984V25.14ZM132.344 30.864L128.636 30.828V19.164C128.636 18.54 128.816 18.048 129.176 17.688C129.56 17.304 130.052 17.112 130.652 17.112C131.012 17.112 131.348 17.148 131.66 17.22C131.996 17.292 132.224 17.364 132.344 17.436V30.864ZM130.652 29.316V26.256H141.524C141.62 26.4 141.704 26.604 141.776 26.868C141.872 27.132 141.92 27.42 141.92 27.732C141.92 28.236 141.8 28.632 141.56 28.92C141.32 29.184 140.984 29.316 140.552 29.316H130.652ZM130.652 39.036V35.94H142.784C142.88 36.084 142.964 36.288 143.036 36.552C143.132 36.816 143.18 37.104 143.18 37.416C143.18 37.92 143.06 38.316 142.82 38.604C142.58 38.892 142.244 39.036 141.812 39.036H130.652ZM130.652 20.208V17.112H142.604C142.7 17.256 142.784 17.46 142.856 17.724C142.952 17.988 143 18.276 143 18.588C143 19.092 142.88 19.488 142.64 19.776C142.4 20.064 142.064 20.208 141.632 20.208H130.652ZM153.626 20.244L153.482 17.112H162.77C162.866 17.256 162.962 17.472 163.058 17.76C163.154 18.024 163.202 18.3 163.202 18.588C163.202 19.116 163.07 19.524 162.806 19.812C162.566 20.1 162.23 20.244 161.798 20.244H153.626ZM155.354 17.112L155.462 20.244H146.174C146.078 20.1 145.982 19.896 145.886 19.632C145.79 19.344 145.742 19.044 145.742 18.732C145.742 18.204 145.862 17.808 146.102 17.544C146.366 17.256 146.714 17.112 147.146 17.112H155.354ZM152.582 19.272H156.326V38.928C156.182 38.976 155.942 39.036 155.606 39.108C155.27 39.18 154.934 39.216 154.598 39.216C153.902 39.216 153.386 39.084 153.05 38.82C152.738 38.532 152.582 38.076 152.582 37.452V19.272Z" fill="#3484CF"/>
</svg>
